####
#
# OBJ File Generated by Meshlab
#
####
# Object rock0subApplied12vert.obj
#
# Vertices: 12
# Faces: 20
#
####
mtllib ./rock0subApplied12vert.obj.mtl

vn 2.244439 -2.609223 0.861694
v 0.924019 -0.655073 0.465608 0.752941 0.752941 0.752941
vn -3.479538 1.372789 1.951080
v -1.003161 0.436996 0.904170 0.752941 0.752941 0.752941
vn -2.070864 -1.597448 -1.094296
v -1.130022 -0.549626 -0.602906 0.752941 0.752941 0.752941
vn -0.136756 0.977857 -5.169647
v -0.009773 0.565498 -1.145978 0.752941 0.752941 0.752941
vn -3.123211 1.620880 -2.743115
v -0.788250 0.520278 -0.878155 0.752941 0.752941 0.752941
vn 1.300062 -2.181019 -2.396135
v 0.513437 -0.537813 -0.997016 0.752941 0.752941 0.752941
vn 3.134193 1.537573 -1.979775
v 1.012417 0.853621 -0.674353 0.752941 0.752941 0.752941
vn -0.421525 3.661611 -1.658025
v 0.065746 1.319536 -0.705686 0.752941 0.752941 0.752941
vn 2.605384 1.942649 1.340526
v 1.076195 0.983052 0.717814 0.752941 0.752941 0.752941
vn 1.060886 -0.223311 4.067955
v 0.352365 0.298651 1.444710 0.752941 0.752941 0.752941
vn -1.290001 3.122166 2.795814
v -0.269291 0.944233 1.138117 0.752941 0.752941 0.752941
vn -1.903873 -2.288376 2.508490
v -0.762650 -0.366468 1.054723 0.752941 0.752941 0.752941
# 12 vertices, 0 vertices normals


usemtl material_0
vt 0.569978 0.722168
vt 0.562391 0.732329
vt 0.564293 0.714116
f 3/1/3 2/2/2 5/3/5
vt 0.379741 0.730565
vt 0.386225 0.723644
vt 0.386440 0.728445
f 8/4/8 5/5/5 2/6/2
vt 0.831025 0.545321
vt 0.813805 0.556444
vt 0.826182 0.537332
f 4/7/4 3/8/3 5/9/5
vt 0.775759 0.619476
vt 0.762464 0.622870
vt 0.767206 0.606235
f 4/10/4 6/11/6 3/12/3
vt 0.332115 0.630168
vt 0.323534 0.629926
vt 0.317406 0.605917
f 5/13/5 8/14/8 4/15/4
vt 0.833669 0.872970
vt 0.839646 0.854922
vt 0.845074 0.871451
f 6/16/6 4/17/4 7/18/7
vt 0.916950 0.777854
vt 0.928127 0.733383
vt 0.932290 0.766174
f 7/19/7 4/20/4 8/21/8
vt 0.144030 0.954970
vt 0.150050 0.946857
vt 0.153226 0.954450
f 7/22/7 1/23/1 6/24/6
vt 0.090323 0.884342
vt 0.076352 0.878532
vt 0.087234 0.876788
f 7/25/7 9/26/9 1/27/1
vt 0.569044 0.279955
vt 0.559746 0.279952
vt 0.558092 0.273117
f 7/28/7 8/29/8 9/30/9
vt 0.138870 0.692553
vt 0.127820 0.690656
vt 0.132234 0.675111
f 1/31/1 9/32/9 10/33/10
vt 0.510649 0.227220
vt 0.514731 0.218087
vt 0.519153 0.217643
f 8/34/8 11/35/11 9/36/9
vt 0.594042 0.040645
vt 0.592020 0.059366
vt 0.571854 0.062049
f 11/37/11 10/38/10 9/39/9
vt 0.732707 0.075354
vt 0.743102 0.072140
vt 0.740172 0.093099
f 1/40/1 10/41/10 12/42/12
vt 0.881911 0.262260
vt 0.828060 0.297613
vt 0.867988 0.241405
f 11/43/11 2/44/2 10/45/10
vt 0.192678 0.330949
vt 0.191854 0.331688
vt 0.191905 0.326337
f 1/46/1 3/47/3 6/48/6
vt 0.787253 0.314280
vt 0.777133 0.296013
vt 0.780957 0.270443
f 2/49/2 12/50/12 10/51/10
vt 0.137262 0.462251
vt 0.119201 0.464798
vt 0.129591 0.458477
f 1/52/1 12/53/12 3/54/3
vt 0.456457 0.236925
vt 0.459129 0.236686
vt 0.460705 0.243760
f 2/55/2 11/56/11 8/57/8
vt 0.584932 0.960709
vt 0.600726 0.973291
vt 0.588856 0.970712
f 2/58/2 3/59/3 12/60/12
# 20 faces, 60 coords texture

# End of File
